<?xml version="1.0"?>
<svg xmlns="http://www.w3.org/2000/svg" xmlns:xlink="http://www.w3.org/1999/xlink" xmlns:svgjs="http://svgjs.com/svgjs" version="1.1" width="512" height="512" x="0" y="0" viewBox="0 0 512 512.00497" style="enable-background:new 0 0 512 512" xml:space="preserve" class=""><g><path xmlns="http://www.w3.org/2000/svg" d="m31.425781 244.039062 415.578125-39.605468c19.085938-1.816406 36.03125 12.179687 37.847656 31.261718l18.9375 198.695313c1.820313 19.082031-12.179687 36.027344-31.261718 37.847656l-415.578125 39.605469c-19.085938 1.820312-36.03125-12.175781-37.851563-31.261719l-18.933594-198.691406c-1.820312-19.085937 12.175782-36.03125 31.261719-37.851563zm0 0" fill="#108b3c" data-original="#4fba6f" style="" class=""/><g xmlns="http://www.w3.org/2000/svg" fill="#fff"><path d="m95.0625 438.242188c-13.925781-.195313-27.195312-5.960938-36.839844-16.007813-23.371094-24.5625-26.929687-61.917969-8.617187-90.453125 8.40625-13.078125 22.277343-21.660156 37.734375-23.34375 15.503906-1.257812 30.746094 4.546875 41.480468 15.804688 23.375 24.554687 26.933594 61.910156 8.617188 90.441406-8.40625 13.089844-22.285156 21.671875-37.75 23.34375-1.535156.15625-3.089844.214844-4.625.214844zm-3.160156-112.648438c-.972656 0-1.941406.046875-2.914063.140625-10.304687 1.230469-19.503906 7.046875-25.035156 15.828125-13.625 21.621094-10.949219 49.714844 6.515625 68.375 7.09375 7.585938 17.234375 11.5625 27.597656 10.820312 10.304688-1.230468 19.507813-7.046874 25.042969-15.828124 6.808594-10.4375 9.777344-22.917969 8.390625-35.300782-.976562-12.425781-6.25-24.121094-14.90625-33.082031-6.4375-6.800781-15.328125-10.742187-24.691406-10.953125zm0 0" fill="#ffffff" data-original="#ffffff" style="" class=""/><path d="m182.753906 430.078125c-4.472656.023437-8.230468-3.359375-8.679687-7.808594l-10.65625-112.355469c-.402344-3.140624.941406-6.253906 3.503906-8.117187 2.558594-1.863281 5.933594-2.183594 8.796875-.835937 2.867188 1.347656 4.773438 4.152343 4.96875 7.3125l10.707031 112.300781c.222657 2.292969-.476562 4.578125-1.941406 6.351562-1.464844 1.777344-3.574219 2.898438-5.867187 3.117188-.285157.027343-.5625.035156-.832032.035156zm0 0" fill="#ffffff" data-original="#ffffff" style="" class=""/><path d="m180.503906 369.6875c-1.839844 0-3.148437 0-3.78125-.058594-4.789062-.175781-8.527344-4.195312-8.359375-8.984375.058594-2.308593 1.046875-4.5 2.738281-6.070312 1.691407-1.574219 3.945313-2.402344 6.253907-2.292969 10.414062.398438 39.917969-1.128906 50.4375-12.316406 2.523437-2.820313 3.753906-6.566406 3.390625-10.332032-.363282-3.765624-2.285156-7.210937-5.300782-9.496093-12.4375-8.972657-42.332031-4.746094-51.832031-2.601563-4.671875 1.074219-9.332031-1.839844-10.40625-6.511718-1.078125-4.667969 1.835938-9.328126 6.507813-10.402344 4.523437-1.042969 44.855468-9.765625 65.882812 5.398437 7.066406 5.21875 11.574219 13.199219 12.402344 21.945313.828125 8.742187-2.105469 17.425781-8.0625 23.882812-15.367188 16.304688-48.242188 17.839844-59.871094 17.839844zm0 0" fill="#ffffff" data-original="#ffffff" style="" class=""/><path d="m285.285156 420.304688c-4.46875-.003907-8.203125-3.402344-8.628906-7.851563l-10.707031-112.308594c-.453125-4.769531 3.042969-9.003906 7.808593-9.460937l74.570313-7.105469c4.75-.417969 8.949219 3.074219 9.398437 7.824219.453126 4.746094-3.011718 8.96875-7.757812 9.453125l-65.953125 6.28125 9.050781 95.03125 65.953125-6.28125c3.097657-.316407 6.128907 1.054687 7.941407 3.585937 1.8125 2.535156 2.125 5.84375.824218 8.675782-1.304687 2.828124-4.023437 4.742187-7.125 5.015624l-74.5625 7.109376c-.269531.023437-.546875.03125-.8125.03125zm0 0" fill="#ffffff" data-original="#ffffff" style="" class=""/><path d="m279.519531 359.839844c-4.792969.222656-8.859375-3.480469-9.085937-8.269532-.222656-4.792968 3.480468-8.863281 8.273437-9.085937l55.929688-5.328125c4.75-.417969 8.945312 3.074219 9.398437 7.824219.449219 4.746093-3.015625 8.96875-7.761718 9.453125l-55.917969 5.328125c-.289063.058593-.566407.078125-.835938.078125zm0 0" fill="#ffffff" data-original="#ffffff" style="" class=""/><path d="m397.140625 409.648438c-4.46875-.003907-8.203125-3.410157-8.625-7.859376l-10.707031-112.304687c-.375-3.90625 1.917968-7.578125 5.597656-8.953125 3.675781-1.378906 7.816406-.113281 10.101562 3.078125l57.195313 79.898437-7.644531-80.234374c-.398438-3.140626.945312-6.246094 3.503906-8.109376 2.554688-1.859374 5.925781-2.183593 8.789062-.839843 2.867188 1.34375 4.773438 4.140625 4.976563 7.300781l10.699219 112.300781c.367187 3.902344-1.925782 7.566407-5.597656 8.941407-3.671876 1.375-7.808594.117187-10.09375-3.066407l-57.195313-79.898437 7.644531 80.246094c.453125 4.765624-3.042968 9-7.808594 9.457031-.289062 0-.523437.042969-.835937.042969zm0 0" fill="#ffffff" data-original="#ffffff" style="" class=""/></g><path xmlns="http://www.w3.org/2000/svg" d="m257.828125 18.144531c-1.109375 0-2.210937-.210937-3.238281-.625-.902344-.121093-1.8125-.171875-2.726563-.15625-4.605469.707031-8.945312-2.351562-9.832031-6.929687-.886719-4.574219 2-9.03125 6.535156-10.097656 1.015625-.2382818 2.054688-.3476568 3.097656-.3281255 2.332032-.0507813 4.664063.1718755 6.941407.6679685.835937.183594 1.660156.429688 2.457031.738281 3.859375 1.546876 6.078125 5.617188 5.289062 9.699219-.792968 4.082031-4.367187 7.03125-8.523437 7.03125zm0 0" fill="#000000" data-original="#000000" style=""/><path xmlns="http://www.w3.org/2000/svg" d="m451.257812 242.988281c-2.558593.003907-4.984374-1.117187-6.636718-3.070312l-174.601563-206.535157c-1.320312-1.570312-2.042969-3.554687-2.039062-5.605468-.019531-3.871094 2.523437-7.289063 6.238281-8.375 3.714844-1.085938 7.703125.417968 9.773438 3.6875l173.894531 205.667968c2.152343 2.582032 2.617187 6.171876 1.199219 9.21875-1.417969 3.046876-4.46875 5-7.828126 5.011719zm0 0" fill="#cb9080" data-original="#cb9080" style="" class=""/><path xmlns="http://www.w3.org/2000/svg" d="m43.394531 286.378906c-3.289062 0-6.292969-1.855468-7.761719-4.796875-1.472656-2.941406-1.152343-6.457031.820313-9.085937l182.304687-244.71875c2.875-3.835938 8.316407-4.613282 12.148438-1.738282 3.835938 2.878907 4.613281 8.316407 1.738281 12.152344l-182.308593 244.71875c-1.640626 2.183594-4.210938 3.46875-6.941407 3.46875zm0 0" fill="#cb9080" data-original="#cb9080" style="" class=""/><path xmlns="http://www.w3.org/2000/svg" d="m251.664062 69.429688c-19.171874 0-34.710937-15.539063-34.710937-34.710938s15.539063-34.7109375 34.710937-34.7109375c19.171876 0 34.710938 15.5390625 34.710938 34.7109375 0 9.207031-3.65625 18.035156-10.164062 24.542969-6.511719 6.511719-15.339844 10.167969-24.546876 10.167969zm0 0" fill="#a5a5a4" data-original="#a5a5a4" style="" class=""/></g></svg>
