<svg width="22" height="22" viewBox="0 0 22 22" fill="none" xmlns="http://www.w3.org/2000/svg">
<path d="M19.2498 2.75H4.58317C4.34006 2.75 4.1069 2.84658 3.93499 3.01849C3.76308 3.19039 3.6665 3.42355 3.6665 3.66667V6.04083C3.6665 6.52025 3.86175 6.99142 4.20092 7.33058L9.1665 12.2962V19.25C9.16668 19.4062 9.20672 19.5597 9.28283 19.6961C9.35893 19.8325 9.46859 19.9472 9.60141 20.0293C9.73423 20.1115 9.88582 20.1584 10.0418 20.1656C10.1978 20.1727 10.3531 20.14 10.4929 20.0704L14.1596 18.2371C14.4703 18.0813 14.6665 17.7641 14.6665 17.4167V12.2962L19.6321 7.33058C19.9713 6.99142 20.1665 6.52025 20.1665 6.04083V3.66667C20.1665 3.42355 20.0699 3.19039 19.898 3.01849C19.7261 2.84658 19.493 2.75 19.2498 2.75V2.75ZM13.1018 11.2686C13.0165 11.3536 12.9488 11.4546 12.9027 11.5658C12.8566 11.677 12.833 11.7963 12.8332 11.9167V16.8502L10.9998 17.7668V11.9167C11 11.7963 10.9764 11.677 10.9303 11.5658C10.8842 11.4546 10.8165 11.3536 10.7313 11.2686L5.49984 6.04083V4.58333H18.3341L18.3359 6.03442L13.1018 11.2686V11.2686Z" fill="#C4C4C4"/>
</svg>
