<svg width="24" height="24" viewBox="0 0 24 24" fill="none" xmlns="http://www.w3.org/2000/svg">
<path fill-rule="evenodd" clip-rule="evenodd" d="M4.52632 18.373V19.7664C4.52632 21.4089 4.39131 22.0005 6.39623 22.0005H17.6384C19.6421 22.0005 19.5058 21.4076 19.5058 19.7664V18.373H4.52632Z" fill="white"/>
<path fill-rule="evenodd" clip-rule="evenodd" d="M7.04688 5.7002H8.22661V9.56675H7.04688V5.7002Z" fill="white"/>
<path fill-rule="evenodd" clip-rule="evenodd" d="M10.8311 5.7002H12.0928V9.43711H10.8311V5.7002Z" fill="white"/>
<path fill-rule="evenodd" clip-rule="evenodd" d="M15.8789 5.7002H17.128V9.28859H15.8789V5.7002Z" fill="white"/>
<path fill-rule="evenodd" clip-rule="evenodd" d="M8.26561 3.15166C8.39178 3.66267 8.19243 4.25045 7.71422 4.30332C7.26756 4.35366 6.92563 3.77846 7.26883 3.2083C7.62085 2.62932 7.71422 2 7.71422 2C7.71422 2 8.11798 2.53744 8.26561 3.15166V3.15166Z" fill="white"/>
<path fill-rule="evenodd" clip-rule="evenodd" d="M12.0164 3.21082C12.1488 3.747 11.9394 4.36625 11.4246 4.42163C10.9439 4.47449 10.5767 3.86909 10.9477 3.27123C11.3262 2.66079 11.4246 2 11.4246 2C11.4246 2 11.8561 2.56639 12.0164 3.21082Z" fill="white"/>
<path fill-rule="evenodd" clip-rule="evenodd" d="M17.1074 3.21542C17.2487 3.7516 17.0241 4.36833 16.4791 4.42371C15.9693 4.47658 15.5782 3.87243 15.9731 3.27457C16.2217 2.88793 16.3935 2.4572 16.4791 2.00586C16.4791 2.00586 16.9371 2.57225 17.1074 3.21542V3.21542Z" fill="white"/>
<path fill-rule="evenodd" clip-rule="evenodd" d="M5.96973 12.5442C6.49336 12.5442 7.25167 12.0483 7.475 11.8746C7.48131 11.8671 8.39229 11.0137 9.49632 11.0137C10.5953 11.0137 11.5441 11.8595 11.5833 11.896C11.7877 12.0722 12.464 12.5442 13.0646 12.5442C13.7737 12.5442 14.4626 11.9086 14.4626 11.9086C14.513 11.8608 15.4556 11.0137 16.5924 11.0137C17.7343 11.0137 18.644 11.8671 18.6819 11.9036C18.885 12.0772 19.2673 12.3328 19.6118 12.4599C19.5727 10.8224 18.8181 9.51465 16.8662 9.51465H7.37406C5.61897 9.51465 4.82785 10.5681 4.65625 11.9677C4.94014 12.1779 5.52433 12.5442 5.96973 12.5442V12.5442Z" fill="white"/>
<path fill-rule="evenodd" clip-rule="evenodd" d="M18.0451 13.8446C18.0224 13.8245 17.3423 13.1914 16.5929 13.1914C15.8371 13.1914 15.1229 13.8295 15.1141 13.8371C15.0813 13.866 14.1665 14.7181 13.065 14.7181C11.9736 14.7181 10.9945 13.8786 10.9528 13.8421C10.7472 13.6584 10.0923 13.1914 9.49678 13.1914C8.78768 13.1914 8.10381 13.8245 8.09498 13.8295C7.94988 13.9453 6.91903 14.7181 5.97019 14.7181C5.48315 14.7181 4.99612 14.518 4.62012 14.3091V16.961H19.6211V14.6779C18.8501 14.518 18.136 13.9214 18.0451 13.8446V13.8446Z" fill="white"/>
<path fill-rule="evenodd" clip-rule="evenodd" d="M2 19.5459H22V21.9814H2V19.5459Z" fill="white"/>
</svg>
