<svg width="26" height="24" viewBox="0 0 26 24" fill="none" xmlns="http://www.w3.org/2000/svg">
<path fill-rule="evenodd" clip-rule="evenodd" d="M5.59067 0H0V2.33333H3.75433L6.986 17.1243H7V17.5H22.1667V17.2107L24.7252 5.9395L25.1195 4.66667H6.5975L5.9325 1.6205L5.59067 0ZM22.1515 7H7.10733L8.89117 15.1667H20.2977L22.1515 7V7Z" fill="#108B3C"/>
<path d="M10.4998 23.3337C11.1187 23.3337 11.7122 23.0878 12.1498 22.6502C12.5873 22.2127 12.8332 21.6192 12.8332 21.0003C12.8332 20.3815 12.5873 19.788 12.1498 19.3504C11.7122 18.9128 11.1187 18.667 10.4998 18.667C9.881 18.667 9.28751 18.9128 8.84992 19.3504C8.41234 19.788 8.1665 20.3815 8.1665 21.0003C8.1665 21.6192 8.41234 22.2127 8.84992 22.6502C9.28751 23.0878 9.881 23.3337 10.4998 23.3337Z" fill="#108B3C"/>
<path d="M21.0002 21.0003C21.0002 21.6192 20.7543 22.2127 20.3167 22.6502C19.8792 23.0878 19.2857 23.3337 18.6668 23.3337C18.048 23.3337 17.4545 23.0878 17.0169 22.6502C16.5793 22.2127 16.3335 21.6192 16.3335 21.0003C16.3335 20.3815 16.5793 19.788 17.0169 19.3504C17.4545 18.9128 18.048 18.667 18.6668 18.667C19.2857 18.667 19.8792 18.9128 20.3167 19.3504C20.7543 19.788 21.0002 20.3815 21.0002 21.0003V21.0003Z" fill="#108B3C"/>
</svg>
