<svg width="134" height="126" viewBox="0 0 134 126" fill="none" xmlns="http://www.w3.org/2000/svg">
<path opacity="0.2" d="M78.0219 8.80213C78.0196 13.663 73.8304 17.6035 68.6609 17.6071C63.4906 17.6045 59.3001 13.6638 59.2979 8.80213C59.299 3.94055 63.4906 -1.10912e-07 68.6609 0C73.8306 0.000519206 78.0213 3.94106 78.0219 8.80213V8.80213Z" fill="#FFC30B"/>
<path opacity="0.4" d="M47.7461 10.8542C50.3288 15.0643 48.7932 20.4459 44.3161 22.8749C39.8387 25.3042 34.1148 23.8632 31.5271 19.6553C28.9435 15.4437 30.4779 10.0603 34.9551 7.62799C39.4348 5.19798 45.1612 6.64231 47.7461 10.8542Z" fill="#FFC30B"/>
<path opacity="0.5" d="M22.6098 26.8586C24.7609 28.0248 26.3312 29.9468 26.975 32.2017C27.6188 34.4567 27.2835 36.8597 26.0428 38.8822C24.8009 40.9045 22.7553 42.3799 20.3563 42.9839C17.9572 43.5879 15.4013 43.2709 13.2508 42.1027C11.1011 40.9362 9.53253 39.0142 8.89035 36.7598C8.24817 34.5055 8.58506 32.1036 9.82684 30.0829C11.0672 28.0613 13.1108 26.5858 15.5081 25.9811C17.9054 25.3765 20.46 25.6921 22.6098 26.8586V26.8586Z" fill="#FFC30B"/>
<path opacity="0.6" d="M9.362 52.5361C11.8452 52.5364 14.2266 53.4642 15.9823 55.1154C17.7381 56.7667 18.7243 59.0061 18.724 61.3411C18.7223 66.2022 14.5318 70.1426 9.362 70.1442C4.1922 70.1426 0.00165605 66.2022 2.13939e-07 61.3411C-0.000530293 59.006 0.985586 56.7665 2.74136 55.1152C4.49713 53.4639 6.8787 52.5361 9.362 52.5361V52.5361Z" fill="#FFC30B"/>
<path opacity="0.7" d="M11.5399 81.0081C13.6891 79.8382 16.2449 79.5204 18.6436 80.1248C21.0423 80.7291 23.0868 82.206 24.3259 84.2296C25.568 86.2508 25.905 88.6533 25.2626 90.9082C24.6202 93.1631 23.0512 95.0855 20.9009 96.2523C18.7492 97.4193 16.1925 97.7346 13.7935 97.1286C11.3946 96.5227 9.35003 95.0452 8.1099 93.0214C6.86976 91.0008 6.53443 88.5997 7.17774 86.3465C7.82105 84.0934 9.39026 82.173 11.5399 81.0081V81.0081Z" fill="#FFC30B"/>
<path opacity="0.8" d="M28.5649 104.636C31.1503 100.427 36.8739 98.985 41.3509 101.414C45.8245 103.845 47.3571 109.224 44.7749 113.432C43.5371 115.456 41.4937 116.933 39.0959 117.538C36.698 118.143 34.1427 117.826 31.9939 116.657C29.8433 115.491 28.2736 113.569 27.6305 111.314C26.9874 109.06 27.3235 106.657 28.5649 104.636V104.636Z" fill="#FFC30B"/>
<path opacity="0.9" d="M55.8721 117.098C55.8707 114.763 56.8563 112.524 58.6116 110.873C60.367 109.222 62.7482 108.294 65.2311 108.295C67.7143 108.294 70.0963 109.221 71.8521 110.872C73.608 112.523 74.5937 114.763 74.5921 117.098C74.5893 121.957 70.3991 125.895 65.2311 125.895C62.7492 125.896 60.3687 124.97 58.6134 123.32C56.8582 121.67 55.8721 119.432 55.8721 117.098V117.098Z" fill="#FFC30B"/>
<path opacity="0.95" d="M86.1501 115.05C83.5645 110.838 85.0953 105.452 89.5711 103.014C94.0522 100.589 99.7752 102.034 102.363 106.242C104.947 110.453 103.413 115.836 98.9351 118.268C94.4588 120.693 88.7394 119.254 86.1501 115.05V115.05Z" fill="#FFC30B"/>
<path opacity="0.96" d="M111.277 99.0365C106.8 96.6064 105.265 91.2242 107.848 87.0138C110.436 82.8036 116.163 81.3623 120.642 83.7942C122.792 84.9614 124.361 86.8845 125.003 89.1398C125.644 91.3952 125.306 93.7979 124.063 95.8188C122.822 97.841 120.778 99.3164 118.379 99.92C115.981 100.524 113.426 100.206 111.277 99.0365Z" fill="#FFC30B"/>
<path opacity="0.97" d="M124.525 73.3612C119.354 73.3602 115.162 69.4181 115.161 64.5553C115.162 62.2212 116.149 59.983 117.905 58.3334C119.661 56.6838 122.043 55.758 124.525 55.7598C129.693 55.7582 133.884 59.6958 133.887 64.5553C133.885 69.4169 129.695 73.3581 124.525 73.3612V73.3612Z" fill="#FFC30B"/>
<path d="M122.353 44.8985C117.872 47.3257 112.148 45.8804 109.563 41.6695C106.98 37.4599 108.513 32.0785 112.988 29.6468C117.465 27.215 123.192 28.6559 125.779 32.8655C128.364 37.0781 126.831 42.464 122.353 44.8985V44.8985Z" fill="#FFC30B"/>
</svg>
