<svg width="48" height="48" viewBox="0 0 48 48" fill="none" xmlns="http://www.w3.org/2000/svg">
<g clip-path="url(#clip0)">
<g filter="url(#filter0_f)">
<path d="M1.18066 46.8797L4.39723 35.189C2.41948 31.7681 1.36535 27.8822 1.37623 23.9096C1.37623 11.4609 11.5477 1.33984 24.045 1.33984C30.1087 1.33984 35.8031 3.68886 40.074 7.95376C44.3555 12.2187 46.7137 17.8909 46.7029 23.9204C46.7029 36.3688 36.5312 46.4901 24.0341 46.4901H24.0232C20.2307 46.4901 16.5032 45.5376 13.1887 43.7405L1.18066 46.8797ZM13.7539 39.6487L14.4384 40.0602C17.3291 41.7704 20.6435 42.6688 24.0232 42.6796H24.0341C34.4122 42.6796 42.8666 34.2688 42.8666 23.9204C42.8666 18.9084 40.9106 14.1997 37.3571 10.649C33.8036 7.09854 29.0655 5.15015 24.0341 5.15015C13.6451 5.15015 5.19054 13.561 5.19054 23.9094C5.19054 27.4492 6.17941 30.9022 8.07035 33.89L8.51585 34.6044L6.61423 41.5214L13.7539 39.6487V39.6487Z" fill="black" fill-opacity="0.24"/>
</g>
<path d="M2.20898 45.6725L5.27836 34.5224C3.3857 31.2518 2.39007 27.5429 2.39142 23.7679C2.39142 11.9015 12.0934 2.24805 23.9952 2.24805C29.7799 2.24805 35.1998 4.49303 39.2779 8.55528C43.356 12.6177 45.5993 18.0272 45.5993 23.7786C45.5993 35.6448 35.8973 45.2983 23.9954 45.2983H23.9847C20.3678 45.2983 16.8154 44.3896 13.6602 42.6792L2.20898 45.6727V45.6725Z" fill="url(#paint0_linear)"/>
<path d="M1.42529 46.453L4.60192 34.9074C2.64873 31.5293 1.60754 27.6914 1.61842 23.7681C1.61842 11.4741 11.6637 1.47852 24.0059 1.47852C29.9943 1.47852 35.6178 3.7982 39.8358 8.01025C44.0641 12.2223 46.393 17.8241 46.3824 23.7787C46.3824 36.0727 36.337 46.0683 23.9949 46.0683H23.9844C20.2461 46.0668 16.5676 45.1333 13.2843 43.3528L1.42529 46.4532V46.453ZM13.8423 39.3118L14.5184 39.7181C17.3733 41.4072 20.6465 42.2946 23.9844 42.3052H23.995C34.2442 42.3052 42.5939 33.9988 42.5939 23.7787C42.5939 18.8291 40.6621 14.1787 37.1527 10.6723C33.6432 7.16586 28.964 5.24157 23.995 5.24157C13.735 5.24157 5.38548 13.548 5.38548 23.7681C5.38548 27.2639 6.36198 30.6741 8.22948 33.6245L8.66954 34.3301L6.79136 41.1613L13.8423 39.3118V39.3118Z" fill="white"/>
<path d="M18.4039 14.4358C17.9853 13.5057 17.5452 13.4842 17.1483 13.4735C16.8263 13.4629 16.4508 13.4629 16.075 13.4629C15.6994 13.4629 15.0983 13.6018 14.5833 14.1577C14.068 14.7137 12.6299 16.0607 12.6299 18.8083C12.6299 21.5448 14.6369 24.196 14.9159 24.5701C15.1949 24.9444 18.7902 30.7493 24.4675 32.9836C29.1897 34.8438 30.1557 34.4695 31.1751 34.3733C32.2055 34.2772 34.4808 33.0264 34.9529 31.7221C35.4143 30.4179 35.4143 29.3061 35.2748 29.0709C35.1353 28.8356 34.7598 28.6968 34.2016 28.4187C33.6436 28.1408 30.8961 26.7938 30.3811 26.6014C29.8658 26.4091 29.4903 26.3235 29.1254 26.8794C28.7496 27.4352 27.6766 28.686 27.3545 29.0603C27.0325 29.4344 26.6999 29.4772 26.1417 29.1992C25.5837 28.9213 23.7807 28.3332 21.6451 26.4304C19.9816 24.9551 18.8547 23.127 18.5326 22.5711C18.2106 22.0153 18.5005 21.7157 18.7795 21.438C19.0263 21.192 19.3375 20.7858 19.6167 20.4651C19.8957 20.1444 19.9923 19.9093 20.1747 19.535C20.3571 19.1609 20.2713 18.8402 20.1318 18.5623C19.9923 18.2842 18.8976 15.5368 18.4039 14.4358V14.4358Z" fill="white"/>
</g>
<defs>
<filter id="filter0_f" x="-4.81934" y="-4.66016" width="57.5222" height="57.5399" filterUnits="userSpaceOnUse" color-interpolation-filters="sRGB">
<feFlood flood-opacity="0" result="BackgroundImageFix"/>
<feBlend mode="normal" in="SourceGraphic" in2="BackgroundImageFix" result="shape"/>
<feGaussianBlur stdDeviation="3" result="effect1_foregroundBlur"/>
</filter>
<linearGradient id="paint0_linear" x1="23.9033" y1="45.6697" x2="23.9033" y2="2.24544" gradientUnits="userSpaceOnUse">
<stop stop-color="#20B038"/>
<stop offset="1" stop-color="#60D66A"/>
</linearGradient>
<clipPath id="clip0">
<rect width="48" height="48" fill="white"/>
</clipPath>
</defs>
</svg>
