<svg width="21" height="21" viewBox="0 0 21 21" fill="none" xmlns="http://www.w3.org/2000/svg">
<path fill-rule="evenodd" clip-rule="evenodd" d="M10.5 1C11.5798 1 12.6154 1.40036 13.3789 2.11299C14.1425 2.82563 14.5714 3.79218 14.5714 4.8V6.06667C14.5714 6.56569 14.4661 7.05983 14.2615 7.52086C14.0569 7.9819 13.757 8.40081 13.3789 8.75367C13.0009 9.10654 12.552 9.38644 12.0581 9.57741C11.5641 9.76838 11.0347 9.86667 10.5 9.86667C9.96533 9.86667 9.4359 9.76838 8.94193 9.57741C8.44796 9.38644 7.99913 9.10654 7.62107 8.75367C7.243 8.40081 6.9431 7.9819 6.73849 7.52086C6.53388 7.05983 6.42857 6.56569 6.42857 6.06667V4.8C6.42857 3.79218 6.85752 2.82563 7.62107 2.11299C8.38461 1.40036 9.42019 1 10.5 1ZM20 18.7333V17.8112C20 13.7743 14.9976 11.1333 10.5 11.1333C6.00243 11.1333 1 13.7743 1 17.8112V18.7333C1 19.0693 1.14298 19.3915 1.3975 19.629C1.65201 19.8666 1.99721 20 2.35714 20H18.6429C19.0028 20 19.348 19.8666 19.6025 19.629C19.857 19.3915 20 19.0693 20 18.7333Z" stroke="#C4C4C4" stroke-linecap="round" stroke-linejoin="round"/>
</svg>
