<svg width="24" height="24" viewBox="0 0 24 24" fill="none" xmlns="http://www.w3.org/2000/svg">
<path d="M11.5 2C6.2617 2 2 6.486 2 12V16.143C2 17.167 2.85215 18 3.9 18H4.85C5.10196 18 5.34359 17.8946 5.52175 17.7071C5.69991 17.5196 5.8 17.2652 5.8 17V11.857C5.8 11.5918 5.69991 11.3374 5.52175 11.1499C5.34359 10.9624 5.10196 10.857 4.85 10.857H3.9874C4.5156 6.987 7.6791 4 11.5 4C15.3209 4 18.4844 6.987 19.0126 10.857H18.15C17.898 10.857 17.6564 10.9624 17.4782 11.1499C17.3001 11.3374 17.2 11.5918 17.2 11.857V18C17.2 19.103 16.3478 20 15.3 20H13.4V19H9.6V22H15.3C17.3957 22 19.1 20.206 19.1 18C20.1478 18 21 17.167 21 16.143V12C21 6.486 16.7383 2 11.5 2Z" fill="#C4C4C4"/>
</svg>
