<svg width="24" height="24" viewBox="0 0 24 24" fill="none" xmlns="http://www.w3.org/2000/svg">
<path d="M21 13.3077C21 14.6202 20.7485 15.8738 20.2454 17.0685C19.7424 18.2632 19.0662 19.2939 18.2168 20.1605C17.3674 21.027 16.3572 21.7169 15.1862 22.2302C14.0152 22.7434 12.7865 23 11.5 23C10.2135 23 8.98481 22.7434 7.8138 22.2302C6.6428 21.7169 5.6326 21.027 4.7832 20.1605C3.93381 19.2939 3.2576 18.2632 2.75456 17.0685C2.25152 15.8738 2 14.6202 2 13.3077C2 11.7764 2.33192 10.3335 2.99577 8.97897C3.65961 7.6244 4.59353 6.48858 5.79753 5.57151C6.15213 5.30228 6.5459 5.19712 6.97884 5.25601C7.41178 5.3149 7.75608 5.52524 8.01172 5.88702C8.27561 6.24038 8.37663 6.63792 8.31478 7.07963C8.25293 7.52133 8.04883 7.8768 7.70247 8.14603C6.89431 8.76863 6.26964 9.53005 5.82845 10.4303C5.38726 11.3305 5.16667 12.2897 5.16667 13.3077C5.16667 14.1827 5.33366 15.0177 5.66764 15.8128C6.00163 16.6079 6.45313 17.2957 7.02214 17.8762C7.59115 18.4567 8.2653 18.9174 9.0446 19.2581C9.82389 19.5989 10.6424 19.7692 11.5 19.7692C12.3576 19.7692 13.1761 19.5989 13.9554 19.2581C14.7347 18.9174 15.4089 18.4567 15.9779 17.8762C16.5469 17.2957 16.9984 16.6079 17.3324 15.8128C17.6663 15.0177 17.8333 14.1827 17.8333 13.3077C17.8333 12.2897 17.6127 11.3305 17.1715 10.4303C16.7304 9.53005 16.1057 8.76863 15.2975 8.14603C14.9512 7.8768 14.7471 7.52133 14.6852 7.07963C14.6234 6.63792 14.7244 6.24038 14.9883 5.88702C15.2439 5.52524 15.5903 5.3149 16.0273 5.25601C16.4644 5.19712 16.8561 5.30228 17.2025 5.57151C18.4065 6.48858 19.3404 7.6244 20.0042 8.97897C20.6681 10.3335 21 11.7764 21 13.3077ZM13.0833 3.61538V11.6923C13.0833 12.1298 12.9266 12.5084 12.6133 12.8281C12.2999 13.1478 11.9288 13.3077 11.5 13.3077C11.0712 13.3077 10.7001 13.1478 10.3867 12.8281C10.0734 12.5084 9.91667 12.1298 9.91667 11.6923V3.61538C9.91667 3.17788 10.0734 2.79928 10.3867 2.47957C10.7001 2.15986 11.0712 2 11.5 2C11.9288 2 12.2999 2.15986 12.6133 2.47957C12.9266 2.79928 13.0833 3.17788 13.0833 3.61538Z" fill="#C4C4C4"/>
</svg>
