<svg width="24" height="24" viewBox="0 0 24 24" fill="none" xmlns="http://www.w3.org/2000/svg">
<path d="M5.05288 19.1929C4.09778 18.2704 3.33596 17.167 2.81187 15.9469C2.28778 14.7269 2.01192 13.4147 2.00038 12.0869C1.98884 10.7591 2.24186 9.44231 2.74467 8.21334C3.24747 6.98438 3.99001 5.86786 4.92893 4.92893C5.86786 3.99001 6.98438 3.24747 8.21334 2.74467C9.44231 2.24186 10.7591 1.98884 12.0869 2.00038C13.4147 2.01192 14.7269 2.28778 15.9469 2.81187C17.167 3.33596 18.2704 4.09778 19.1929 5.05288C21.0145 6.9389 22.0224 9.46493 21.9996 12.0869C21.9768 14.7089 20.9251 17.217 19.0711 19.0711C17.217 20.9251 14.7089 21.9768 12.0869 21.9996C9.46493 22.0224 6.9389 21.0145 5.05288 19.1929V19.1929ZM17.7829 17.7829C19.284 16.2818 20.1273 14.2458 20.1273 12.1229C20.1273 9.99997 19.284 7.96401 17.7829 6.46288C16.2818 4.96176 14.2458 4.11843 12.1229 4.11843C9.99997 4.11843 7.96401 4.96176 6.46288 6.46288C4.96176 7.96401 4.11843 9.99997 4.11843 12.1229C4.11843 14.2458 4.96176 16.2818 6.46288 17.7829C7.96401 19.284 9.99997 20.1273 12.1229 20.1273C14.2458 20.1273 16.2818 19.284 17.7829 17.7829V17.7829ZM11.1229 13.1229V11.1229H13.1229V17.1229H11.1229V13.1229ZM11.1229 7.12288H13.1229V9.12288H11.1229V7.12288Z" fill="#C4C4C4"/>
</svg>
