<svg width="22" height="22" viewBox="0 0 22 22" fill="none" xmlns="http://www.w3.org/2000/svg">
<path d="M12.3198 18.333H15.8398V21.9997H12.3198V18.333Z" fill="#C4C4C4"/>
<path d="M18.48 18.333H22V21.9997H18.48V18.333Z" fill="#C4C4C4"/>
<path d="M12.3198 11.917H15.8398V15.5837H12.3198V11.917Z" fill="#C4C4C4"/>
<path d="M18.48 11.917H22V15.5837H18.48V11.917Z" fill="#C4C4C4"/>
<path d="M22 6.41667H16.72V2.75C16.72 1.19167 15.576 0 14.08 0H8.8C7.304 0 6.16 1.19167 6.16 2.75V6.41667H0.88C0.352 6.41667 0 6.78333 0 7.33333V7.51667L1.672 18.6083C1.76 19.525 2.552 20.1667 3.432 20.1667H10.56V18.3333H3.432L1.936 8.25H22V6.41667ZM7.92 2.75C7.92 2.2 8.272 1.83333 8.8 1.83333H14.08C14.608 1.83333 14.96 2.2 14.96 2.75V6.41667H7.92V2.75Z" fill="#C4C4C4"/>
</svg>
