<svg width="23" height="24" viewBox="0 0 23 24" fill="none" xmlns="http://www.w3.org/2000/svg">
<path opacity="0.54" fill-rule="evenodd" clip-rule="evenodd" d="M14.3788 14.0002H13.6423L13.3863 13.7262C14.2907 12.5892 14.8407 11.1152 14.8407 9.50021C14.8407 5.91021 12.1416 3.00021 8.8117 3.00021C5.48185 3.00021 2.78271 5.91021 2.78271 9.50021C2.78271 13.0902 5.48185 16.0002 8.8117 16.0002C10.3097 16.0002 11.6759 15.4082 12.7305 14.4342L12.9865 14.7082V15.5002L17.6224 20.4912L19.0053 19.0002L14.3788 14.0002V14.0002ZM8.8117 14.0002C6.50585 14.0002 4.63779 11.9862 4.63779 9.50021C4.63779 7.01521 6.50585 5.00021 8.8117 5.00021C11.1166 5.00021 12.9856 7.01521 12.9856 9.50021C12.9856 11.9862 11.1166 14.0002 8.8117 14.0002V14.0002Z" fill="black"/>
</svg>
