<svg width="24" height="24" viewBox="0 0 24 24" fill="none" xmlns="http://www.w3.org/2000/svg">
<path fill-rule="evenodd" clip-rule="evenodd" d="M9.88105 2.85742C10.8093 2.85742 11.6995 3.25777 12.3559 3.9704C13.0123 4.68303 13.3811 5.64957 13.3811 6.65738V7.92403C13.3811 8.42305 13.2905 8.91718 13.1146 9.37821C12.9387 9.83925 12.6809 10.2582 12.3559 10.611C12.0309 10.9639 11.6451 11.2438 11.2204 11.4347C10.7958 11.6257 10.3407 11.724 9.88105 11.724C9.42142 11.724 8.96629 11.6257 8.54165 11.4347C8.11701 11.2438 7.73117 10.9639 7.40617 10.611C7.08116 10.2582 6.82335 9.83925 6.64746 9.37821C6.47157 8.91718 6.38104 8.42305 6.38104 7.92403V6.65738C6.38104 5.64957 6.74979 4.68303 7.40617 3.9704C8.06254 3.25777 8.95279 2.85742 9.88105 2.85742ZM18.0477 20.5906V19.6684C18.0477 15.6316 13.7474 12.9906 9.88105 12.9906C6.0147 12.9906 1.71436 15.6316 1.71436 19.6684V20.5906C1.71436 20.9265 1.83727 21.2487 2.05607 21.4862C2.27486 21.7238 2.57161 21.8572 2.88103 21.8572H16.8811C17.1905 21.8572 17.4872 21.7238 17.706 21.4862C17.9248 21.2487 18.0477 20.9265 18.0477 20.5906Z" stroke="#C4C4C4" stroke-linecap="round" stroke-linejoin="round"/>
<path fill-rule="evenodd" clip-rule="evenodd" d="M14.5708 3.08398C15.2475 3.34981 15.8324 3.83559 16.2457 4.47519C16.6591 5.11479 16.8808 5.87715 16.8808 6.65848V7.92513C16.8807 8.70543 16.6594 9.46678 16.247 10.1058C15.8345 10.7448 15.2509 11.2306 14.5755 11.4971C15.3431 10.485 15.727 9.08285 15.7258 7.29181C15.7246 5.50076 15.3396 4.09604 14.5708 3.08398V3.08398ZM20.3808 21.8583H21.5475C21.8569 21.8583 22.1537 21.7249 22.3725 21.4873C22.5912 21.2498 22.7142 20.9276 22.7142 20.5917V19.6695C22.7142 16.9209 20.7192 14.8183 18.226 13.7581C18.226 13.7581 21.5475 16.7917 20.3808 21.8583Z" fill="#C4C4C4" stroke="#C4C4C4" stroke-linecap="round" stroke-linejoin="round"/>
</svg>
