<svg width="24" height="24" viewBox="0 0 24 24" fill="none" xmlns="http://www.w3.org/2000/svg">
<path d="M21.2285 10.4107L11.8185 1.50468C11.7009 1.3941 11.5419 1.33203 11.3762 1.33203C11.2105 1.33203 11.0515 1.3941 10.9339 1.50468L1.52389 10.4107C1.42112 10.5242 1.36742 10.6703 1.37351 10.8198C1.37961 10.9692 1.44506 11.1109 1.55679 11.2167C1.66851 11.3224 1.81828 11.3844 1.97617 11.3901C2.13405 11.3959 2.28843 11.3451 2.40844 11.2478L11.373 2.7634L20.3377 11.2538C20.4577 11.351 20.612 11.4019 20.7699 11.3961C20.9278 11.3903 21.0776 11.3284 21.1893 11.2226C21.301 11.1169 21.3665 10.9751 21.3726 10.8257C21.3787 10.6763 21.325 10.5302 21.2222 10.4166L21.2285 10.4107Z" fill="#C4C4C4"/>
<path d="M17.6461 19.1442H14.5094V13.2069H8.23607V19.1442H5.0994V10.8319L3.84473 12.0194V19.1442C3.84473 19.4591 3.97691 19.7612 4.21221 19.9839C4.44751 20.2065 4.76664 20.3317 5.0994 20.3317H9.49074V14.3943H13.2547V20.3317H17.6461C17.9788 20.3317 18.298 20.2065 18.5333 19.9839C18.7686 19.7612 18.9008 19.4591 18.9008 19.1442V11.8769L17.6461 10.6895V19.1442Z" fill="#C4C4C4"/>
</svg>
