<svg width="14" height="14" viewBox="0 0 14 14" fill="none" xmlns="http://www.w3.org/2000/svg">
<path d="M4.6 1.15H9.4C11.3026 1.15 12.85 2.69744 12.85 4.6V9.4C12.85 11.3026 11.3026 12.85 9.4 12.85H1.6C1.48065 12.85 1.36619 12.8026 1.2818 12.7182C1.19741 12.6338 1.15 12.5193 1.15 12.4V4.6C1.15 2.69744 2.69744 1.15 4.6 1.15Z" fill="url(#paint0_linear)" stroke="white" stroke-width="0.3"/>
<path fill-rule="evenodd" clip-rule="evenodd" d="M3.6366 9.54883V10.1062C3.6366 10.7633 3.57584 10.9999 4.47806 10.9999H9.53705C10.4387 10.9999 10.3774 10.7628 10.3774 10.1062V9.54883H3.6366Z" fill="white"/>
<path fill-rule="evenodd" clip-rule="evenodd" d="M4.771 4.47949H5.30188V6.02625H4.771V4.47949Z" fill="white"/>
<path fill-rule="evenodd" clip-rule="evenodd" d="M6.47412 4.47949H7.04191V5.97439H6.47412V4.47949Z" fill="white"/>
<path fill-rule="evenodd" clip-rule="evenodd" d="M8.74561 4.47949H9.30771V5.91497H8.74561V4.47949Z" fill="white"/>
<path fill-rule="evenodd" clip-rule="evenodd" d="M5.31962 3.4607C5.3764 3.66513 5.28669 3.90026 5.0715 3.92141C4.8705 3.94155 4.71663 3.71145 4.87107 3.48336C5.02948 3.25175 5.0715 3 5.0715 3C5.0715 3 5.25319 3.215 5.31962 3.4607V3.4607Z" fill="white"/>
<path fill-rule="evenodd" clip-rule="evenodd" d="M7.00722 3.48437C7.06684 3.69886 6.97258 3.94658 6.74092 3.96874C6.5246 3.98988 6.35937 3.7477 6.5263 3.50854C6.69664 3.26434 6.74092 3 6.74092 3C6.74092 3 6.93511 3.22658 7.00722 3.48437Z" fill="white"/>
<path fill-rule="evenodd" clip-rule="evenodd" d="M9.29848 3.48582C9.36207 3.70031 9.26101 3.94703 9.01572 3.96918C8.78634 3.99033 8.61032 3.74865 8.78804 3.50948C8.89991 3.35481 8.97721 3.18251 9.01572 3.00195C9.01572 3.00195 9.22183 3.22853 9.29848 3.48582V3.48582Z" fill="white"/>
<path fill-rule="evenodd" clip-rule="evenodd" d="M4.28638 7.21876C4.52201 7.21876 4.86325 7.02038 4.96375 6.9509C4.96659 6.94788 5.37653 6.60651 5.87335 6.60651C6.36789 6.60651 6.79487 6.94486 6.81247 6.95946C6.90445 7.02995 7.20878 7.21876 7.47905 7.21876C7.79815 7.21876 8.10816 6.9645 8.10816 6.9645C8.13087 6.94536 8.55501 6.60651 9.06658 6.60651C9.58043 6.60651 9.98981 6.94788 10.0068 6.96248C10.0983 7.03197 10.2703 7.13418 10.4253 7.18503C10.4077 6.52997 10.0682 6.00684 9.18979 6.00684H4.91833C4.12853 6.00684 3.77253 6.42827 3.69531 6.98816C3.82306 7.07225 4.08595 7.21876 4.28638 7.21876V7.21876Z" fill="white"/>
<path fill-rule="evenodd" clip-rule="evenodd" d="M9.72046 7.73788C9.71024 7.72982 9.4042 7.47656 9.06693 7.47656C8.72683 7.47656 8.40546 7.73184 8.40149 7.73486C8.38673 7.74644 7.97508 8.08731 7.4794 8.08731C6.98827 8.08731 6.54766 7.75147 6.52892 7.73687C6.43638 7.66336 6.14169 7.47656 5.8737 7.47656C5.5546 7.47656 5.24686 7.72982 5.24289 7.73184C5.17759 7.77816 4.71371 8.08731 4.28673 8.08731C4.06757 8.08731 3.8484 8.00725 3.6792 7.92367V8.98455H10.4296V8.0712C10.0827 8.00725 9.76134 7.76859 9.72046 7.73788V7.73788Z" fill="white"/>
<path fill-rule="evenodd" clip-rule="evenodd" d="M2.5 10.0186H11.5V10.9928H2.5V10.0186Z" fill="white"/>
<defs>
<linearGradient id="paint0_linear" x1="7" y1="1" x2="7" y2="13" gradientUnits="userSpaceOnUse">
<stop stop-color="#1C7C3D"/>
<stop offset="1" stop-color="#F2BB25"/>
</linearGradient>
</defs>
</svg>
