<svg width="24" height="24" viewBox="0 0 24 24" fill="none" xmlns="http://www.w3.org/2000/svg">
<path fill-rule="evenodd" clip-rule="evenodd" d="M6.75 18.5H17.25C17.4489 18.5 17.6397 18.579 17.7803 18.7197C17.921 18.8603 18 19.0511 18 19.25C18 19.4489 17.921 19.6397 17.7803 19.7803C17.6397 19.921 17.4489 20 17.25 20H6.75C6.55109 20 6.36032 19.921 6.21967 19.7803C6.07902 19.6397 6 19.4489 6 19.25C6 19.0511 6.07902 18.8603 6.21967 18.7197C6.36032 18.579 6.55109 18.5 6.75 18.5ZM6 14.75L13.5 7.25L15.75 9.5L8.25 17H6V14.75ZM14.25 6.5L15.75 5L18 7.25L16.4993 8.75075L14.25 6.5Z" fill="url(#paint0_linear)"/>
<path d="M16 2H8C4.691 2 2 4.691 2 8V21C2 21.2652 2.10536 21.5196 2.29289 21.7071C2.48043 21.8946 2.73478 22 3 22H16C19.309 22 22 19.309 22 16V8C22 4.691 19.309 2 16 2ZM8.999 17H7V15.001L12.53 9.479L14.529 11.478L8.999 17ZM15.472 10.535L13.473 8.536L14.997 7.013L16.996 9.012L15.472 10.535Z" fill="white"/>
<defs>
<linearGradient id="paint0_linear" x1="-2.78571" y1="-4.91071" x2="21.8475" y2="22.262" gradientUnits="userSpaceOnUse">
<stop stop-color="#32383E"/>
<stop offset="1" stop-color="#17191C"/>
</linearGradient>
</defs>
</svg>
