<svg width="24" height="24" viewBox="0 0 24 24" fill="none" xmlns="http://www.w3.org/2000/svg">
<path d="M12 22C6.47059 22 2 17.5294 2 12C2 6.47059 6.47059 2 12 2C17.5294 2 22 6.47059 22 12C22 17.5294 17.4706 22 12 22ZM12 3.17647C7.11765 3.17647 3.17647 7.11765 3.17647 12C3.17647 16.8824 7.11765 20.8235 12 20.8235C16.8824 20.8235 20.8235 16.8824 20.8235 12C20.8235 7.11765 16.8235 3.17647 12 3.17647Z" fill="#C4C4C4"/>
<path d="M6.9406 18.14L6 17.7245C6.26128 17.1013 7.09736 16.7377 7.9857 16.3222C8.87404 15.9067 9.9714 15.4393 9.9714 14.868V14.0889C9.65787 13.8292 9.13532 13.2579 9.03081 12.427C8.76953 12.1673 8.35149 11.6998 8.35149 11.0766C8.35149 10.713 8.50826 10.4014 8.61277 10.1937C8.50826 9.77818 8.40374 8.99913 8.40374 8.37589C8.40374 6.35036 9.81464 5 12.0616 5C12.6887 5 13.4725 5.15581 13.8906 5.62324C14.8834 5.83099 15.7195 6.9736 15.7195 8.37589C15.7195 9.25881 15.5627 9.98593 15.4582 10.3495C15.5627 10.5053 15.6672 10.765 15.6672 11.0766C15.6672 11.7518 15.3014 12.2192 14.9879 12.427C14.8834 13.2579 14.4131 13.7773 14.0996 14.037V14.868C14.0996 15.3354 15.0402 15.699 15.8763 16.0106C16.8691 16.3742 17.9142 16.7896 18.28 17.6206L17.2871 17.9842C17.1304 17.5687 16.2943 17.2571 15.5105 16.9974C14.3609 16.5819 13.0545 16.1145 13.0545 14.9199V13.5696L13.3157 13.4138C13.3157 13.4138 13.9428 12.9983 13.9428 12.1673V11.8037L14.2563 11.6479C14.3086 11.6479 14.5699 11.4921 14.5699 11.0766C14.5699 10.9727 14.4654 10.8169 14.4131 10.765L14.2041 10.5572L14.3086 10.2975C14.3086 10.2975 14.5699 9.46656 14.5699 8.42783C14.5699 7.44103 13.9951 6.71391 13.5248 6.71391H13.2112L13.0545 6.45423C13.0545 6.24648 12.6887 6.03874 12.0616 6.03874C10.4417 6.03874 9.44885 6.92166 9.44885 8.37589C9.44885 9.05107 9.71013 10.1937 9.71013 10.1937L9.76238 10.4534L9.55336 10.713C9.50111 10.713 9.3966 10.8689 9.3966 11.0766C9.3966 11.3363 9.71013 11.6479 9.86689 11.7518L10.0759 11.9076V12.1673C10.0759 12.9463 10.7552 13.3618 10.7552 13.4138L11.0165 13.5696V14.9199C11.0165 16.1664 9.65787 16.7896 8.40374 17.309C7.82894 17.5168 7.04511 17.8803 6.9406 18.14V18.14Z" fill="#C4C4C4"/>
</svg>
