<svg width="24" height="24" viewBox="0 0 24 24" fill="none" xmlns="http://www.w3.org/2000/svg">
<path d="M21.3762 5.5401C20.5386 3.82521 18.1258 2.42211 15.3191 3.23902C13.9779 3.62549 12.8078 4.45428 11.9999 5.58999C11.1919 4.45428 10.0218 3.62549 8.68062 3.23902C5.86771 2.43458 3.46111 3.82521 2.62348 5.5401C1.44831 7.94095 1.93588 10.6411 4.0737 13.5658C5.74894 15.8544 8.14304 18.1742 11.6186 20.8681C11.7284 20.9536 11.8637 21 12.003 21C12.1423 21 12.2776 20.9536 12.3874 20.8681C15.8567 18.1804 18.257 15.8793 19.9323 13.5658C22.0638 10.6411 22.5514 7.94095 21.3762 5.5401V5.5401Z" fill="white"/>
</svg>
