<svg width="24" height="24" viewBox="0 0 24 24" fill="none" xmlns="http://www.w3.org/2000/svg">
<path d="M19.0215 14.8139L15.8515 10.2496C16.3007 10.0328 16.6079 9.60017 16.6079 9.10266C16.6079 8.55811 16.2399 8.0913 15.7204 7.90022L16.6807 4.81644C16.7221 4.6834 16.6817 4.54023 16.5753 4.44238C15.9364 3.85567 14.8971 3.85567 14.2583 4.44238C14.1054 4.58273 13.9023 4.66001 13.6862 4.66001C13.4701 4.66001 13.267 4.58273 13.1132 4.44146L13.1112 4.4396C12.4746 3.85487 11.437 3.85323 10.7979 4.43613L10.786 4.44702C10.4706 4.7347 9.95824 4.73387 9.64395 4.44516L9.64092 4.44238C9.0021 3.85567 7.96274 3.85567 7.32392 4.44238C7.21735 4.5403 7.177 4.68359 7.21851 4.81671L8.1809 7.89949C7.66031 8.09008 7.29128 8.55739 7.29128 9.1027C7.29128 9.60021 7.59848 10.0328 8.04767 10.2496L4.87762 14.8139C3.65124 16.5797 3.57352 18.7304 4.66974 20.5669C5.76595 22.4035 7.78181 23.5 10.0622 23.5H13.8369C16.1172 23.5 18.1331 22.4035 19.2294 20.5669C20.3256 18.7304 20.2479 16.5797 19.0215 14.8139V14.8139ZM9.05443 4.98102L9.05746 4.9838C9.69408 5.56849 10.7316 5.57009 11.3707 4.98727L11.3826 4.97637C11.698 4.68869 12.2103 4.68953 12.5256 4.97912L12.5277 4.98098C13.1665 5.56769 14.2058 5.56769 14.8447 4.98098C15.1046 4.74225 15.4988 4.70023 15.806 4.85495L14.8866 7.80766H9.01508L8.09324 4.85491C8.40044 4.70023 8.79455 4.74232 9.05443 4.98102V4.98102ZM18.5021 20.2008C17.5537 21.7896 15.8097 22.7383 13.8369 22.7383H10.0622C8.08943 22.7383 6.34543 21.7897 5.39705 20.2008C4.44867 18.6119 4.51589 16.7513 5.57686 15.2236L8.92854 10.3977H10.0835C10.3125 10.3977 10.4982 10.2271 10.4982 10.0168C10.4982 9.80641 10.3125 9.63589 10.0835 9.63589H8.70121C8.38107 9.63589 8.12065 9.3967 8.12065 9.10266C8.12065 8.80862 8.38107 8.56942 8.70121 8.56942H8.70258H15.1979C15.5181 8.56942 15.7785 8.80862 15.7785 9.10266C15.7785 9.3967 15.5181 9.63589 15.1979 9.63589H13.8157C13.5866 9.63589 13.401 9.80641 13.401 10.0168C13.401 10.2271 13.5866 10.3977 13.8157 10.3977H14.9706L18.3223 15.2236C19.3833 16.7512 19.4505 18.6118 18.5021 20.2008Z" fill="#C4C4C4"/>
<path d="M12.6806 16.4384C12.5766 16.4046 12.4704 16.3695 12.3642 16.333V14.6067C12.6454 14.6827 12.8331 14.8059 12.8411 14.8113C13.0235 14.9368 13.2823 14.9035 13.4202 14.7364C13.5585 14.5687 13.5226 14.3298 13.34 14.2028C13.3157 14.1858 12.9301 13.9229 12.3642 13.8234V13.4444C12.3642 13.234 12.1786 13.0635 11.9495 13.0635C11.7205 13.0635 11.5348 13.234 11.5348 13.4444V13.8207C11.4646 13.833 11.3934 13.8487 11.3212 13.8686C10.7376 14.0297 10.3014 14.4881 10.1827 15.065C10.0745 15.5918 10.2582 16.0998 10.6623 16.3909C10.8816 16.5489 11.1555 16.6931 11.5348 16.8463V19.0552C11.2083 19.0363 10.9898 18.968 10.6257 18.7492C10.434 18.634 10.177 18.6834 10.0516 18.8594C9.92621 19.0355 9.97995 19.2715 10.1716 19.3867C10.7027 19.7058 11.0622 19.7961 11.5348 19.8175V20.2114C11.5348 20.4217 11.7205 20.5923 11.9495 20.5923C12.1786 20.5923 12.3642 20.4217 12.3642 20.2114V19.7779C13.2522 19.5993 13.7716 18.9187 13.8881 18.282C14.0404 17.4496 13.5665 16.726 12.6806 16.4384ZM11.1741 15.7915C11.0147 15.6766 10.9471 15.4524 10.9977 15.2063C11.0442 14.98 11.21 14.7071 11.5348 14.6061V16.001C11.3985 15.9343 11.2755 15.8645 11.1741 15.7915ZM13.0702 18.1557C13.0105 18.4819 12.7707 18.8279 12.3642 18.9808V17.1434C12.3777 17.1479 12.3905 17.1522 12.4042 17.1566C13.1477 17.398 13.1019 17.9823 13.0702 18.1557V18.1557Z" fill="#C4C4C4"/>
<path d="M11.9498 10.3975C12.0589 10.3975 12.1659 10.3568 12.243 10.2859C12.3201 10.2151 12.3645 10.1168 12.3645 10.0166C12.3645 9.91645 12.3201 9.81819 12.243 9.74734C12.1659 9.6765 12.0589 9.63574 11.9498 9.63574C11.8408 9.63574 11.7338 9.6765 11.6567 9.74734C11.5795 9.81819 11.5352 9.91645 11.5352 10.0166C11.5352 10.1168 11.5795 10.2151 11.6567 10.2859C11.7338 10.3568 11.8407 10.3975 11.9498 10.3975Z" fill="#C4C4C4"/>
</svg>
