<svg width="25" height="26" viewBox="0 0 25 26" fill="none" xmlns="http://www.w3.org/2000/svg">
<path d="M23.7451 13.3368C23.6405 13.1228 23.6405 12.8773 23.7451 12.6633L24.7148 10.6796C25.2547 9.57505 24.827 8.25855 23.741 7.68234L21.7905 6.64742C21.58 6.53581 21.4358 6.33715 21.3946 6.10259L21.0131 3.9277C20.8007 2.71677 19.6806 1.90306 18.4635 2.07526L16.2772 2.38452C16.0412 2.41783 15.8079 2.34196 15.6367 2.17636L14.0498 0.641154C13.1661 -0.213693 11.7818 -0.213743 10.8983 0.641154L9.31125 2.17652C9.14001 2.34216 8.90667 2.41788 8.67075 2.38467L6.48447 2.07541C5.267 1.90311 4.14728 2.71693 3.93486 3.92785L3.5534 6.10265C3.51221 6.33725 3.36795 6.53586 3.15756 6.64753L1.20706 7.68244C0.121062 8.2586 -0.306717 9.5752 0.233186 10.6797L1.20285 12.6634C1.30746 12.8775 1.30746 13.123 1.20285 13.337L0.233136 15.3207C-0.306767 16.4252 0.121011 17.7417 1.20701 18.3179L3.15751 19.3528C3.36795 19.4644 3.51221 19.6631 3.5534 19.8976L3.93486 22.0725C4.12824 23.1749 5.07347 23.948 6.15983 23.9479C6.26683 23.9479 6.3754 23.9404 6.48452 23.9249L8.6708 23.6157C8.90657 23.5822 9.14006 23.6582 9.3113 23.8238L10.8983 25.359C11.3401 25.7865 11.907 26.0002 12.474 26.0001C13.0409 26.0001 13.608 25.7864 14.0497 25.359L15.6367 23.8238C15.808 23.6582 16.0413 23.5826 16.2772 23.6157L18.4635 23.9249C19.6811 24.0972 20.8007 23.2834 21.0131 22.0725L21.3946 19.8977C21.4358 19.6631 21.5801 19.4645 21.7905 19.3528L23.741 18.3179C24.827 17.7417 25.2547 16.4251 24.7148 15.3206L23.7451 13.3368ZM23.0381 16.9932L21.0876 18.0281C20.4657 18.3581 20.0392 18.945 19.9176 19.6385L19.5361 21.8134C19.4643 22.2231 19.0855 22.4982 18.6735 22.4401L16.4873 22.1308C15.79 22.0321 15.1001 22.2565 14.5941 22.7459L13.0071 24.2811C12.7082 24.5703 12.2398 24.5703 11.9408 24.2811L10.3539 22.7459C9.9262 22.3322 9.36711 22.108 8.78343 22.108C8.67648 22.108 8.56868 22.1155 8.46072 22.1308L6.27444 22.44C5.86281 22.4982 5.48373 22.223 5.41183 21.8133L5.03031 19.6384C4.90864 18.9449 4.48218 18.358 3.86027 18.028L1.90977 16.9931C1.54232 16.7982 1.39759 16.3528 1.58025 15.9791L2.54997 13.9953C2.85912 13.3628 2.85912 12.6373 2.54997 12.0048L1.58025 10.0211C1.39759 9.64736 1.54232 9.20196 1.90977 9.00701L3.86027 7.9721C4.48213 7.64207 4.90864 7.05514 5.03026 6.36168L5.41173 4.18683C5.48363 3.77713 5.86236 3.5019 6.27434 3.56009L8.46061 3.86935C9.15758 3.96802 9.84775 3.74372 10.3538 3.25424L11.9408 1.71903C12.2397 1.42988 12.708 1.42988 13.007 1.71903L14.594 3.25424C15.1 3.74377 15.7901 3.96802 16.4872 3.86935L18.6734 3.56009C19.0851 3.50185 19.4642 3.77713 19.536 4.18683L19.9175 6.36173C20.0392 7.05519 20.4656 7.64217 21.0876 7.9721L23.038 9.00701C23.4055 9.20196 23.5502 9.64736 23.3676 10.0211L22.3979 12.0048C22.0887 12.6372 22.0887 13.3628 22.3979 13.9953L23.3676 15.979C23.5503 16.3528 23.4055 16.7982 23.0381 16.9932Z" fill="#108B3C"/>
<path d="M17.9525 7.52136C17.6597 7.22856 17.1849 7.22856 16.8921 7.52136L6.99548 17.4181C6.70268 17.7109 6.70268 18.1856 6.99548 18.4784C7.14188 18.6248 7.33378 18.698 7.52564 18.698C7.71749 18.698 7.90944 18.6249 8.05579 18.4784L17.9524 8.58177C18.2454 8.28891 18.2454 7.81421 17.9525 7.52136Z" fill="#108B3C"/>
<path d="M9.47482 6.25195C7.9589 6.25195 6.72559 7.48527 6.72559 9.00118C6.72559 10.5171 7.9589 11.7504 9.47482 11.7504C10.9907 11.7504 12.224 10.5171 12.224 9.00118C12.224 7.48527 10.9907 6.25195 9.47482 6.25195ZM9.47482 10.2508C8.78577 10.2508 8.2252 9.69023 8.2252 9.00113C8.2252 8.31208 8.78577 7.75151 9.47482 7.75151C10.1639 7.75151 10.7245 8.31208 10.7245 9.00113C10.7244 9.69023 10.1639 10.2508 9.47482 10.2508Z" fill="#108B3C"/>
<path d="M15.4734 14.25C13.9574 14.25 12.7241 15.4833 12.7241 16.9992C12.7241 18.5151 13.9574 19.7485 15.4734 19.7485C16.9893 19.7485 18.2226 18.5151 18.2226 16.9992C18.2226 15.4833 16.9893 14.25 15.4734 14.25ZM15.4734 18.2488C14.7843 18.2488 14.2237 17.6883 14.2237 16.9992C14.2237 16.3102 14.7843 15.7496 15.4734 15.7496C16.1624 15.7496 16.723 16.3102 16.723 16.9992C16.723 17.6883 16.1624 18.2488 15.4734 18.2488Z" fill="#108B3C"/>
</svg>
