<svg width="20" height="21" viewBox="0 0 20 21" fill="none" xmlns="http://www.w3.org/2000/svg">
<mask id="mask0" mask-type="alpha" maskUnits="userSpaceOnUse" x="1" y="1" width="18" height="18">
<path fill-rule="evenodd" clip-rule="evenodd" d="M9.99984 1.70898C5.39984 1.70898 1.6665 5.53804 1.6665 10.256C1.6665 14.9739 5.39984 18.803 9.99984 18.803C14.5998 18.803 18.3332 14.9739 18.3332 10.256C18.3332 5.53804 14.5998 1.70898 9.99984 1.70898ZM9.99984 17.0936C6.3165 17.0936 3.33317 14.0338 3.33317 10.256C3.33317 6.47822 6.3165 3.41839 9.99984 3.41839C13.6832 3.41839 16.6665 6.47822 16.6665 10.256C16.6665 14.0338 13.6832 17.0936 9.99984 17.0936ZM14.1665 10.256C14.1665 12.6162 12.301 14.5295 9.99984 14.5295C7.69865 14.5295 5.83317 12.6162 5.83317 10.256C5.83317 7.8958 7.69865 5.98249 9.99984 5.98249C12.301 5.98249 14.1665 7.8958 14.1665 10.256Z" fill="white"/>
</mask>
<g mask="url(#mask0)">
<rect width="20" height="20.5128" fill="#108B3C"/>
</g>
</svg>
