<svg width="14" height="14" viewBox="0 0 14 14" fill="none" xmlns="http://www.w3.org/2000/svg">
<path fill-rule="evenodd" clip-rule="evenodd" d="M14 7C14 10.866 10.866 14 7 14C3.134 14 0 10.866 0 7C0 3.13403 3.134 0 7 0C10.866 0 14 3.13403 14 7ZM5.03033 3.96973C4.73743 3.67676 4.26257 3.67676 3.96967 3.96973C3.67679 4.26245 3.67679 4.73755 3.96967 5.03027L5.93933 7L3.96967 8.96973C3.67679 9.26245 3.67679 9.73755 3.96967 10.0303C4.26257 10.3232 4.73743 10.3232 5.03033 10.0303L7 8.06055L8.96967 10.0303C9.26257 10.3232 9.73743 10.3232 10.0303 10.0303C10.3232 9.73755 10.3232 9.26245 10.0303 8.96973L8.06067 7L10.0303 5.03027C10.3232 4.73755 10.3232 4.26245 10.0303 3.96973C9.73743 3.67676 9.26257 3.67676 8.96967 3.96973L7 5.93945L5.03033 3.96973Z" fill="#8E8E93"/>
</svg>
