<svg width="24" height="24" viewBox="0 0 24 24" fill="none" xmlns="http://www.w3.org/2000/svg">
<path d="M17.0171 2.00016C16.8919 2.00308 16.7674 2.01892 16.6458 2.04741L3.78125 5.25738C3.27275 5.38492 2.82275 5.66757 2.50079 6.06165C2.17883 6.45573 2.00283 6.93929 2 7.43761V17.75C2 18.9838 3.07271 20 4.375 20H18.625C19.9273 20 21 18.9838 21 17.75V8.00011C21 6.76637 19.9273 5.75013 18.625 5.75013H8.03646L17.0417 3.50015V5.00013H18.625V3.50015C18.625 2.6564 17.8674 1.98816 17.0171 2.00016ZM4.375 7.25011H18.625C19.0731 7.25011 19.4167 7.57561 19.4167 8.00011V17.75C19.4167 18.1745 19.0731 18.5 18.625 18.5H4.375C3.92692 18.5 3.58333 18.1745 3.58333 17.75V8.00011C3.58333 7.57561 3.92692 7.25011 4.375 7.25011ZM16.6458 11.7501C16.3309 11.7501 16.0288 11.8686 15.8061 12.0796C15.5834 12.2906 15.4583 12.5767 15.4583 12.8751C15.4583 13.1734 15.5834 13.4596 15.8061 13.6706C16.0288 13.8815 16.3309 14.0001 16.6458 14.0001C16.9608 14.0001 17.2628 13.8815 17.4855 13.6706C17.7082 13.4596 17.8333 13.1734 17.8333 12.8751C17.8333 12.5767 17.7082 12.2906 17.4855 12.0796C17.2628 11.8686 16.9608 11.7501 16.6458 11.7501Z" fill="#C4C4C4"/>
</svg>
