<svg width="18" height="18" viewBox="0 0 18 18" fill="none" xmlns="http://www.w3.org/2000/svg">
<path d="M13.6667 6.58958H12.5158C12.7851 6.23309 12.8888 5.79778 12.8053 5.37481C12.7217 4.95184 12.4573 4.57405 12.0675 4.32055C11.6777 4.06705 11.1927 3.95753 10.7141 4.01492C10.2355 4.0723 9.80039 4.29215 9.5 4.62841C9.19961 4.29215 8.76455 4.0723 8.28595 4.01492C7.80735 3.95753 7.32234 4.06705 6.93253 4.32055C6.54271 4.57405 6.27832 4.95184 6.19474 5.37481C6.11116 5.79778 6.21488 6.23309 6.48417 6.58958H5.33333C5.11239 6.58977 4.90055 6.66791 4.74432 6.80684C4.58809 6.94577 4.50022 7.13414 4.5 7.33062V8.8127C4.50022 9.00918 4.58809 9.19755 4.74432 9.33648C4.90055 9.47541 5.11239 9.55355 5.33333 9.55375V13.259C5.33355 13.4554 5.42142 13.6438 5.57765 13.7827C5.73389 13.9217 5.94572 13.9998 6.16667 14H12.8333C13.0543 13.9998 13.2661 13.9217 13.4223 13.7827C13.5786 13.6438 13.6664 13.4554 13.6667 13.259V9.55375C13.8876 9.55355 14.0994 9.47541 14.2557 9.33648C14.4119 9.19755 14.4998 9.00918 14.5 8.8127V7.33062C14.4998 7.13414 14.4119 6.94577 14.2557 6.80684C14.0994 6.66791 13.8876 6.58977 13.6667 6.58958ZM9.91667 5.66328C9.91667 5.48007 9.97776 5.30098 10.0922 5.14865C10.2067 4.99632 10.3694 4.87759 10.5597 4.80748C10.75 4.73737 10.9595 4.71903 11.1616 4.75477C11.3636 4.79051 11.5492 4.87873 11.6949 5.00828C11.8406 5.13783 11.9398 5.30288 11.98 5.48256C12.0202 5.66225 11.9995 5.8485 11.9207 6.01776C11.8419 6.18702 11.7084 6.33168 11.5371 6.43347C11.3658 6.53525 11.1644 6.58958 10.9583 6.58958H9.91667V5.66328ZM8.04167 4.73697C8.31783 4.73727 8.58259 4.83495 8.77787 5.00861C8.97315 5.18226 9.083 5.41769 9.08333 5.66328V6.58958H8.04167C7.7654 6.58958 7.50045 6.49199 7.3051 6.31827C7.10975 6.14455 7 5.90895 7 5.66328C7 5.4176 7.10975 5.182 7.3051 5.00828C7.50045 4.83457 7.7654 4.73697 8.04167 4.73697ZM5.33333 7.33062H9.08333V8.8127H5.33333V7.33062ZM6.16667 9.55375H9.08333V13.259H6.16667V9.55375ZM12.8337 13.259H9.91667V9.55375H12.8333L12.8337 13.259ZM9.91667 8.8127V7.33062H13.6667L13.6671 8.8127H9.91667Z" fill="white"/>
</svg>
