<svg width="28" height="28" viewBox="0 0 28 28" fill="none" xmlns="http://www.w3.org/2000/svg">
<path fill-rule="evenodd" clip-rule="evenodd" d="M6.75717 2.33301H1.1665V4.66634H4.92084L8.1525 19.4573H8.1665V19.833H23.3332V19.5437L25.8917 8.27251L26.286 6.99967H7.764L7.099 3.95351L6.75717 2.33301ZM23.318 9.33301H8.27384L10.0577 17.4997H21.4642L23.318 9.33301V9.33301Z" fill="#F3F2ED"/>
<path d="M11.6663 25.6667C12.2852 25.6667 12.8787 25.4208 13.3163 24.9832C13.7538 24.5457 13.9997 23.9522 13.9997 23.3333C13.9997 22.7145 13.7538 22.121 13.3163 21.6834C12.8787 21.2458 12.2852 21 11.6663 21C11.0475 21 10.454 21.2458 10.0164 21.6834C9.57884 22.121 9.33301 22.7145 9.33301 23.3333C9.33301 23.9522 9.57884 24.5457 10.0164 24.9832C10.454 25.4208 11.0475 25.6667 11.6663 25.6667Z" fill="#F3F2ED"/>
<path d="M22.1667 23.3333C22.1667 23.9522 21.9208 24.5457 21.4832 24.9832C21.0457 25.4208 20.4522 25.6667 19.8333 25.6667C19.2145 25.6667 18.621 25.4208 18.1834 24.9832C17.7458 24.5457 17.5 23.9522 17.5 23.3333C17.5 22.7145 17.7458 22.121 18.1834 21.6834C18.621 21.2458 19.2145 21 19.8333 21C20.4522 21 21.0457 21.2458 21.4832 21.6834C21.9208 22.121 22.1667 22.7145 22.1667 23.3333V23.3333Z" fill="#F3F2ED"/>
</svg>
