<svg width="20" height="20" viewBox="0 0 20 20" fill="none" xmlns="http://www.w3.org/2000/svg">
<path d="M10.0002 6.66634C8.1585 6.66634 6.66683 8.15801 6.66683 9.99967C6.66683 11.8413 8.1585 13.333 10.0002 13.333C11.8418 13.333 13.3335 11.8413 13.3335 9.99967C13.3335 8.15801 11.8418 6.66634 10.0002 6.66634ZM17.4502 9.16634C17.2614 7.47644 16.5036 5.90096 15.3013 4.69859C14.0989 3.49622 12.5234 2.73843 10.8335 2.54967V0.833008H9.16683V2.54967C7.47693 2.73843 5.90144 3.49622 4.69907 4.69859C3.4967 5.90096 2.73892 7.47644 2.55016 9.16634H0.833496V10.833H2.55016C2.73892 12.5229 3.4967 14.0984 4.69907 15.3008C5.90144 16.5031 7.47693 17.2609 9.16683 17.4497V19.1663H10.8335V17.4497C12.5234 17.2609 14.0989 16.5031 15.3013 15.3008C16.5036 14.0984 17.2614 12.5229 17.4502 10.833H19.1668V9.16634H17.4502V9.16634ZM10.0002 15.833C6.77516 15.833 4.16683 13.2247 4.16683 9.99967C4.16683 6.77467 6.77516 4.16634 10.0002 4.16634C13.2252 4.16634 15.8335 6.77467 15.8335 9.99967C15.8335 13.2247 13.2252 15.833 10.0002 15.833Z" fill="#FFC30B"/>
</svg>
